<?xml version="1.0" encoding="UTF-8" standalone="no"?>
<!-- Created with Inkscape (http://www.inkscape.org/) -->

<svg
   xmlns:dc="http://purl.org/dc/elements/1.1/"
   xmlns:cc="http://creativecommons.org/ns#"
   xmlns:rdf="http://www.w3.org/1999/02/22-rdf-syntax-ns#"
   xmlns:svg="http://www.w3.org/2000/svg"
   xmlns="http://www.w3.org/2000/svg"
   xmlns:sodipodi="http://sodipodi.sourceforge.net/DTD/sodipodi-0.dtd"
   xmlns:inkscape="http://www.inkscape.org/namespaces/inkscape"
   width="210mm"
   height="297mm"
   viewBox="0 0 744.09448819 1052.3622047"
   id="svg2"
   version="1.1"
   inkscape:version="0.91 r13725"
   sodipodi:docname="stockings_measurements.svg">
  <defs
     id="defs4" />
  <sodipodi:namedview
     id="base"
     pagecolor="#ffffff"
     bordercolor="#666666"
     borderopacity="1.0"
     inkscape:pageopacity="0.0"
     inkscape:pageshadow="2"
     inkscape:zoom="0.98994949"
     inkscape:cx="297.83385"
     inkscape:cy="729.60279"
     inkscape:document-units="px"
     inkscape:current-layer="layer1"
     showgrid="false"
     showguides="false"
     inkscape:window-width="1366"
     inkscape:window-height="705"
     inkscape:window-x="-8"
     inkscape:window-y="-8"
     inkscape:window-maximized="1" />
  <metadata
     id="metadata7">
    <rdf:RDF>
      <cc:Work
         rdf:about="">
        <dc:format>image/svg+xml</dc:format>
        <dc:type
           rdf:resource="http://purl.org/dc/dcmitype/StillImage" />
        <dc:title></dc:title>
      </cc:Work>
    </rdf:RDF>
  </metadata>
  <g
     inkscape:label="Layer 1"
     inkscape:groupmode="layer"
     id="layer1">
    <path
       style="fill:#ececec;fill-rule:evenodd;stroke:#000000;stroke-width:1px;stroke-linecap:butt;stroke-linejoin:miter;stroke-opacity:1"
       d="m 423.25391,152.31629 c 0,0 -49.78847,58.24717 -64.64976,92.93403 -11.91091,27.80053 -11.40246,59.41857 -18.18274,88.89343 -6.70082,29.12942 -7.42548,60.903 -22.22336,86.87312 -8.48699,14.89458 -23.59187,24.93255 -36.36549,36.36549 -6.42612,5.75165 -13.00037,11.41925 -20.20305,16.16244 -9.56139,6.29647 -27.69132,5.01629 -30.30458,16.16244 -1.32236,5.64017 4.95048,11.49132 10.10153,14.14214 13.17353,6.77933 30.14459,3.86657 44.44671,0 9.03143,-2.44164 15.74518,-10.23009 24.24366,-14.14214 7.44835,-3.42865 15.28869,-6.05306 23.23351,-8.08122 7.93811,-2.02645 18.01516,1.28161 24.24366,-4.04061 6.47608,-5.53377 6.1241,-15.95318 8.08122,-24.24366 2.18812,-9.26904 1.27583,-19.1706 4.04061,-28.28427 10.6242,-35.02098 36.44655,-64.09985 47.47717,-98.99495 6.17334,-19.52923 0.23681,-42.65954 10.10152,-60.60915 12.63299,-22.98672 58.58885,-52.52794 58.58885,-52.52794"
       id="path3336"
       inkscape:connector-curvature="0"
       sodipodi:nodetypes="caaaaaaaaaaaaaaac" />
    <circle
       style="opacity:1;fill:#ff2a2a;stroke:none;stroke-width:3;stroke-miterlimit:4;stroke-dasharray:none"
       id="path3354-7"
       cx="235.71428"
       cy="488.79077"
       r="3.0304577" />
    <path
       style="fill:none;fill-rule:evenodd;stroke:#ff2a2a;stroke-width:1px;stroke-linecap:butt;stroke-linejoin:miter;stroke-opacity:1"
       d="m 328.57142,421.64792 c 0,0 8.36302,-23.5966 11.42858,-35.71428 6.95186,-27.47963 15.71429,-83.57144 15.71429,-83.57144"
       id="path3409"
       inkscape:connector-curvature="0"
       sodipodi:nodetypes="cac" />
    <text
       xml:space="preserve"
       style="font-style:normal;font-weight:normal;font-size:40px;line-height:125%;font-family:sans-serif;letter-spacing:0px;word-spacing:0px;fill:#ff2a2a;fill-opacity:1;stroke:none;stroke-width:1px;stroke-linecap:butt;stroke-linejoin:miter;stroke-opacity:1;"
       x="274.25641"
       y="453.8468"
       id="text3413"
       sodipodi:linespacing="125%"><tspan
         sodipodi:role="line"
         id="tspan3415"
         x="274.25641"
         y="453.8468"
         style="font-size:17.5px;fill:#ff2a2a;">a</tspan></text>
    <text
       xml:space="preserve"
       style="font-style:normal;font-weight:normal;font-size:40px;line-height:125%;font-family:sans-serif;letter-spacing:0px;word-spacing:0px;fill:#ff2a2a;fill-opacity:1;stroke:none;stroke-width:1px;stroke-linecap:butt;stroke-linejoin:miter;stroke-opacity:1;"
       x="330.82495"
       y="324.04221"
       id="text3417"
       sodipodi:linespacing="125%"><tspan
         sodipodi:role="line"
         id="tspan3419"
         x="330.82495"
         y="324.04221"
         style="font-size:17.5px;fill:#ff2a2a;">b</tspan></text>
    <text
       xml:space="preserve"
       style="font-style:normal;font-weight:normal;font-size:40px;line-height:125%;font-family:sans-serif;letter-spacing:0px;word-spacing:0px;fill:#ff2a2a;fill-opacity:1;stroke:none;stroke-width:1px;stroke-linecap:butt;stroke-linejoin:miter;stroke-opacity:1;"
       x="372.74628"
       y="204.33914"
       id="text3421"
       sodipodi:linespacing="125%"><tspan
         sodipodi:role="line"
         id="tspan3423"
         x="372.74628"
         y="204.33914"
         style="font-size:17.5px;fill:#ff2a2a;">c</tspan></text>
    <text
       xml:space="preserve"
       style="font-style:normal;font-weight:normal;font-size:40px;line-height:125%;font-family:sans-serif;letter-spacing:0px;word-spacing:0px;fill:#ff2a2a;fill-opacity:1;stroke:none;stroke-width:1px;stroke-linecap:butt;stroke-linejoin:miter;stroke-opacity:1;"
       x="347.99756"
       y="371.01434"
       id="text3429"
       sodipodi:linespacing="125%"><tspan
         sodipodi:role="line"
         id="tspan3431"
         x="347.99756"
         y="371.01434"
         style="font-size:17.5px;fill:#ff2a2a;">f</tspan></text>
    <path
       style="fill:none;fill-rule:evenodd;stroke:#b3b3b3;stroke-width:1px;stroke-linecap:butt;stroke-linejoin:miter;stroke-opacity:1"
       d="m 241.93153,480.61586 c 0,0 8.02917,-0.0271 11.61676,1.51523 3.18864,1.37078 6.30595,3.58356 8.08122,6.56599 1.40182,2.35504 1.32659,5.34704 1.51523,8.08122 0.24362,3.53115 -0.50508,10.60661 -0.50508,10.60661"
       id="path3433"
       inkscape:connector-curvature="0"
       sodipodi:nodetypes="caaac" />
    <path
       style="fill:none;fill-rule:evenodd;stroke:#b3b3b3;stroke-width:1px;stroke-linecap:butt;stroke-linejoin:miter;stroke-opacity:1"
       d="m 303.55084,437.68438 c 0,0 10.90257,1.488 16.16244,3.03046 6.45009,1.89149 13.12155,3.80811 18.68782,7.57614 5.02874,3.40415 9.12466,8.17107 12.62691,13.13199 2.38828,3.38299 4.60442,7.08137 5.55584,11.11167 0.50285,2.13011 0,6.56599 0,6.56599"
       id="path3435"
       inkscape:connector-curvature="0"
       sodipodi:nodetypes="caaaac" />
    <path
       style="fill:none;fill-rule:evenodd;stroke:#b3b3b3;stroke-width:1px;stroke-linecap:butt;stroke-linejoin:miter;stroke-opacity:1"
       d="m 319.2082,419.98641 c 0,0 11.18939,0.87534 16.66752,2.0203 8.6027,1.79802 17.27042,3.90129 25.25382,7.57615 2.54533,1.17165 7.07106,4.54568 7.07106,4.54568"
       id="path3437"
       inkscape:connector-curvature="0"
       sodipodi:nodetypes="caac" />
    <path
       style="fill:none;fill-rule:evenodd;stroke:#b3b3b3;stroke-width:1px;stroke-linecap:butt;stroke-linejoin:miter;stroke-opacity:1"
       d="m 344.9671,304.32394 c 0,0 19.59155,-2.72387 29.29442,-1.51523 11.89,1.48108 23.98504,4.58721 34.34519,10.6066 3.19263,1.85496 6.15764,4.42438 8.08122,7.57615 0.63852,1.04621 1.01015,3.53553 1.01015,3.53553"
       id="path3439"
       inkscape:connector-curvature="0"
       sodipodi:nodetypes="caaac" />
    <path
       style="fill:none;fill-rule:evenodd;stroke:#b3b3b3;stroke-width:1px;stroke-linecap:butt;stroke-linejoin:miter;stroke-opacity:1"
       d="m 351.53309,262.42291 c 0,0 15.12388,-3.0521 22.72843,-2.52538 10.22467,0.70819 20.55394,3.15292 29.7995,7.57615 4.55619,2.17975 8.30621,5.7821 12.12183,9.09137 1.97857,1.716 5.55584,5.55584 5.55584,5.55584"
       id="path3441"
       inkscape:connector-curvature="0"
       sodipodi:nodetypes="caaac" />
    <path
       style="fill:none;fill-rule:evenodd;stroke:#b3b3b3;stroke-width:1px;stroke-linecap:butt;stroke-linejoin:miter;stroke-opacity:1"
       d="m 361.63461,238.17925 c 0,0 14.22295,-0.57414 21.2132,0.50508 10.74198,1.65845 21.95859,3.55935 31.31473,9.09137 4.5089,2.66598 8.197,6.75941 11.11168,11.11168 1.21786,1.81854 2.52538,6.06092 2.52538,6.06092"
       id="path3443"
       inkscape:connector-curvature="0"
       sodipodi:nodetypes="caaac" />
    <path
       style="fill:none;fill-rule:evenodd;stroke:#b3b3b3;stroke-width:1px;stroke-linecap:butt;stroke-linejoin:miter;stroke-opacity:1"
       d="m 401.53564,177.5701 c 0,0 21.89542,2.23045 31.8198,6.56599 7.96297,3.47869 15.0571,9.01938 21.2132,15.15229 3.67428,3.66044 6.67439,8.03809 9.09138,12.6269 2.08471,3.95795 4.54569,12.62691 4.54569,12.62691"
       id="path3445"
       inkscape:connector-curvature="0"
       sodipodi:nodetypes="caaac" />
    <path
       style="fill:none;fill-rule:evenodd;stroke:#ff2a2a;stroke-width:1px;stroke-linecap:butt;stroke-linejoin:miter;stroke-opacity:1"
       d="m 234.28572,488.07649 c 0,0 13.7603,-2.69124 19.99999,-5.71429 13.20164,-6.39604 24.40824,-16.3673 35.71429,-25.71428 9.34615,-7.72669 18.96702,-15.44085 26.42857,-25 2.68943,-3.44547 4.42036,-7.54638 6.42857,-11.42857 2.29988,-4.44604 4.75875,-8.85249 6.42857,-13.57143 8.09086,-22.86489 12.30754,-46.94698 17.14286,-70.71429 4.95521,-24.35665 6.27718,-49.41787 12.14286,-73.57143 2.00789,-8.26805 4.15283,-16.62605 7.85714,-24.28571 5.23252,-10.81966 13.13811,-20.13294 20,-30 6.71627,-9.65766 20.71429,-28.57143 20.71429,-28.57143"
       id="path3407"
       inkscape:connector-curvature="0"
       sodipodi:nodetypes="caaaaaaaaac" />
    <circle
       style="opacity:1;fill:#ff2a2a;stroke:none;stroke-width:3;stroke-miterlimit:4;stroke-dasharray:none"
       id="path3354-0"
       cx="323.57141"
       cy="420.21936"
       r="3.0304577" />
    <circle
       style="opacity:1;fill:#ff2a2a;stroke:none;stroke-width:3;stroke-miterlimit:4;stroke-dasharray:none"
       id="path3354-1"
       cx="328.75"
       cy="421.2551"
       r="3.0304577" />
    <circle
       style="opacity:1;fill:#ff2a2a;stroke:none;stroke-width:3;stroke-miterlimit:4;stroke-dasharray:none"
       id="path3354-04"
       cx="356.85715"
       cy="302.36218"
       r="3.0304577" />
    <circle
       style="opacity:1;fill:#ff2a2a;stroke:none;stroke-width:3;stroke-miterlimit:4;stroke-dasharray:none"
       id="path3354-3"
       cx="367.14285"
       cy="238.07651"
       r="3.0304577" />
    <circle
       style="opacity:1;fill:#ff2a2a;stroke:none;stroke-width:3;stroke-miterlimit:4;stroke-dasharray:none"
       id="path3354-36"
       cx="372.85715"
       cy="239.50507"
       r="3.0304577" />
    <circle
       style="opacity:1;fill:#ff2a2a;stroke:none;stroke-width:3;stroke-miterlimit:4;stroke-dasharray:none"
       id="path3354-9"
       cx="365.71429"
       cy="259.50507"
       r="3.0304577" />
    <path
       style="fill:#ff2a2a;fill-rule:evenodd;stroke:#ff2a2a;stroke-width:1px;stroke-linecap:butt;stroke-linejoin:miter;stroke-opacity:1"
       d="m 365.71428,259.50506 7.14286,-20.71429"
       id="path3411"
       inkscape:connector-curvature="0" />
    <text
       xml:space="preserve"
       style="font-style:normal;font-weight:normal;font-size:40px;line-height:125%;font-family:sans-serif;letter-spacing:0px;word-spacing:0px;fill:#ff2a2a;fill-opacity:1;stroke:none;stroke-width:1px;stroke-linecap:butt;stroke-linejoin:miter;stroke-opacity:1;"
       x="372.74628"
       y="257.37216"
       id="text3425"
       sodipodi:linespacing="125%"><tspan
         sodipodi:role="line"
         id="tspan3427"
         x="372.74628"
         y="257.37216"
         style="font-size:17.5px;fill:#ff2a2a;">d</tspan></text>
    <circle
       style="opacity:1;fill:#ff2a2a;stroke:none;stroke-width:3;stroke-miterlimit:4;stroke-dasharray:none"
       id="path3354"
       cx="407.70636"
       cy="178.97043"
       r="3.0304577" />
    <text
       xml:space="preserve"
       style="font-style:normal;font-weight:normal;font-size:40px;line-height:125%;font-family:sans-serif;letter-spacing:0px;word-spacing:0px;fill:#b3b3b3;fill-opacity:1;stroke:none;stroke-width:1px;stroke-linecap:butt;stroke-linejoin:miter;stroke-opacity:1;"
       x="265.6701"
       y="496.77829"
       id="text3447"
       sodipodi:linespacing="125%"><tspan
         sodipodi:role="line"
         id="tspan3449"
         x="265.6701"
         y="496.77829"
         style="font-size:17.5px;fill:#b3b3b3;">g</tspan></text>
    <text
       xml:space="preserve"
       style="font-style:normal;font-weight:normal;font-size:17.5px;line-height:125%;font-family:sans-serif;letter-spacing:0px;word-spacing:0px;fill:#b3b3b3;fill-opacity:1;stroke:none;stroke-width:1px;stroke-linecap:butt;stroke-linejoin:miter;stroke-opacity:1;"
       x="332.84528"
       y="464.45343"
       id="text3451"
       sodipodi:linespacing="125%"><tspan
         sodipodi:role="line"
         id="tspan3453"
         x="332.84528"
         y="464.45343">h</tspan></text>
    <text
       xml:space="preserve"
       style="font-style:normal;font-weight:normal;font-size:17.5px;line-height:125%;font-family:sans-serif;letter-spacing:0px;word-spacing:0px;fill:#b3b3b3;fill-opacity:1;stroke:none;stroke-width:1px;stroke-linecap:butt;stroke-linejoin:miter;stroke-opacity:1;"
       x="353.55341"
       y="425.0575"
       id="text3455"
       sodipodi:linespacing="125%"><tspan
         sodipodi:role="line"
         id="tspan3457"
         x="353.55341"
         y="425.0575">i</tspan></text>
    <text
       xml:space="preserve"
       style="font-style:normal;font-weight:normal;font-size:40px;line-height:125%;font-family:sans-serif;letter-spacing:0px;word-spacing:0px;fill:#b3b3b3;fill-opacity:1;stroke:none;stroke-width:1px;stroke-linecap:butt;stroke-linejoin:miter;stroke-opacity:1;"
       x="391.43411"
       y="321.51685"
       id="text3459"
       sodipodi:linespacing="125%"><tspan
         sodipodi:role="line"
         id="tspan3461"
         x="391.43411"
         y="321.51685"
         style="font-size:17.5px;fill:#b3b3b3;">j</tspan></text>
    <text
       xml:space="preserve"
       style="font-style:normal;font-weight:normal;font-size:40px;line-height:125%;font-family:sans-serif;letter-spacing:0px;word-spacing:0px;fill:#b3b3b3;fill-opacity:1;stroke:none;stroke-width:1px;stroke-linecap:butt;stroke-linejoin:miter;stroke-opacity:1;"
       x="397.49503"
       y="283.13107"
       id="text3463"
       sodipodi:linespacing="125%"><tspan
         sodipodi:role="line"
         id="tspan3465"
         x="397.49503"
         y="283.13107"
         style="font-size:17.5px;fill:#b3b3b3;">k</tspan></text>
    <text
       xml:space="preserve"
       style="font-style:normal;font-weight:normal;font-size:40px;line-height:125%;font-family:sans-serif;letter-spacing:0px;word-spacing:0px;fill:#b3b3b3;fill-opacity:1;stroke:none;stroke-width:1px;stroke-linecap:butt;stroke-linejoin:miter;stroke-opacity:1;"
       x="418.20316"
       y="249.29094"
       id="text3467"
       sodipodi:linespacing="125%"><tspan
         sodipodi:role="line"
         id="tspan3469"
         x="418.20316"
         y="249.29094"
         style="font-size:17.5px;fill:#b3b3b3;">l</tspan></text>
    <text
       xml:space="preserve"
       style="font-style:normal;font-weight:normal;font-size:40px;line-height:125%;font-family:sans-serif;letter-spacing:0px;word-spacing:0px;fill:#b3b3b3;fill-opacity:1;stroke:none;stroke-width:1px;stroke-linecap:butt;stroke-linejoin:miter;stroke-opacity:1;"
       x="439.92145"
       y="212.92543"
       id="text3471"
       sodipodi:linespacing="125%"><tspan
         sodipodi:role="line"
         id="tspan3473"
         x="439.92145"
         y="212.92543"
         style="font-size:17.5px;fill:#b3b3b3;">m</tspan></text>
    <rect
       style="opacity:1;fill:none;stroke:#000000;stroke-width:3;stroke-miterlimit:4;stroke-dasharray:none"
       id="rect3475"
       width="337.39096"
       height="389.91888"
       x="192.93913"
       y="138.17416"
       inkscape:export-xdpi="90"
       inkscape:export-ydpi="90" />
  </g>
</svg>
